<?xml version="1.0" encoding="UTF-8" standalone="no"?><svg width="100%" height="100%" viewBox="0 0 1000 1000" version="1.1" xmlns="http://www.w3.org/2000/svg" xml:space="preserve" style="fill-rule:evenodd;clip-rule:evenodd;stroke-linejoin:round;stroke-miterlimit:2;"><rect x="-22.74" y="-11.737" width="1045.479" height="1039.415" style="fill:none;"/><g><path d="M385.733,753.847c0,0 -1.934,66.111 -39.846,80.239c0,0 -11.801,3.822 -25.688,-8.997c0,0 -16.256,-25.275 33.15,-54.651l344.065,-176.27l-13.04,-20.119c0,0 -292.277,138.476 -355.303,184.302c-24.876,18.087 -54.413,43.999 -24.235,88.303c0,0 46.289,39.59 85.454,-18.694c0,0 17.796,-38.59 18.835,-86.096" style="fill:#fff;"/><path d="M634.674,480.281c-3.124,8.683 12.3,18.076 18.093,14.554c0.657,0.613 19.062,-8.821 22.747,-10.499c9.324,-4.245 -19.241,-16.935 -19.824,-15.3c-4.297,-0.634 -20.314,9.292 -21.016,11.245Z" style="fill:#fff;"/><path d="M405.162,264.121l-32.59,-34.262c0,0 -23.44,-34.945 4.883,-45.819c28.323,-10.874 28.812,50.951 28.812,50.951l-18.514,488.263l24.083,-12.887l18.624,-478.018c0,0 -2.374,-77.887 -48.155,-76.168c-45.781,1.718 -48.173,42.87 -39.808,65.316c8.349,22.404 7.987,32.269 61.381,76.518" style="fill:#fff;"/><path d="M677.352,482.786c0,0 24.913,11.038 46.837,11.038c21.925,0 30.668,-11.404 30.668,-11.404c0,0 8.649,-18.4 -17.412,-22.464c0,0 -12.209,-0.938 -22.853,4.299l-215.054,107.013l-10.136,-15.801l218.581,-113.303c0,0 42.494,-18.47 64.047,15.57c21.553,34.041 -19.871,54.953 -26.597,56.632c0,0 -41.127,15.24 -92.253,-19.551l-227.146,-176.067l1.617,-32.834l228.568,183.083l21.133,13.79Z" style="fill:#fff;"/></g></svg>
